<mxfile host="app.diagrams.net" modified="2023-09-24T13:28:06.985Z" agent="Mozilla/5.0 (Windows NT 10.0; Win64; x64) AppleWebKit/537.36 (KHTML, like Gecko) Chrome/116.0.0.0 Safari/537.36" etag="pF6wmjN3HXBQRLRkwomx" version="21.8.1" type="github">
  <diagram name="第 1 页" id="xPENWHAAOlPfN7BIaRi4">
    <mxGraphModel dx="1434" dy="750" grid="1" gridSize="10" guides="1" tooltips="1" connect="1" arrows="1" fold="1" page="1" pageScale="1" pageWidth="1169" pageHeight="1654" math="0" shadow="0">
      <root>
        <mxCell id="0" />
        <mxCell id="1" parent="0" />
        <mxCell id="Ua05He2h8O1wiykpPq7E-1" value="" style="rounded=1;whiteSpace=wrap;html=1;fillColor=#dae8fc;strokeColor=#6c8ebf;" parent="1" vertex="1">
          <mxGeometry x="90" y="70" width="300" height="430" as="geometry" />
        </mxCell>
        <mxCell id="Ua05He2h8O1wiykpPq7E-2" value="" style="rounded=0;whiteSpace=wrap;html=1;fillColor=#d5e8d4;strokeColor=#82b366;" parent="1" vertex="1">
          <mxGeometry x="120" y="110" width="240" height="60" as="geometry" />
        </mxCell>
        <mxCell id="Ua05He2h8O1wiykpPq7E-3" value="Client Functions" style="text;html=1;strokeColor=none;fillColor=none;align=center;verticalAlign=middle;whiteSpace=wrap;rounded=0;" parent="1" vertex="1">
          <mxGeometry x="185" y="127.5" width="110" height="25" as="geometry" />
        </mxCell>
        <mxCell id="Ua05He2h8O1wiykpPq7E-4" value="" style="rounded=0;whiteSpace=wrap;html=1;fillColor=#f8cecc;strokeColor=#b85450;" parent="1" vertex="1">
          <mxGeometry x="120" y="240" width="240" height="70" as="geometry" />
        </mxCell>
        <mxCell id="Ua05He2h8O1wiykpPq7E-5" value="" style="rounded=0;whiteSpace=wrap;html=1;fillColor=#ffe6cc;strokeColor=#d79b00;" parent="1" vertex="1">
          <mxGeometry x="120" y="390" width="240" height="60" as="geometry" />
        </mxCell>
        <mxCell id="Ua05He2h8O1wiykpPq7E-6" value="Client Stub" style="text;html=1;strokeColor=none;fillColor=none;align=center;verticalAlign=middle;whiteSpace=wrap;rounded=0;" parent="1" vertex="1">
          <mxGeometry x="200" y="260" width="80" height="30" as="geometry" />
        </mxCell>
        <mxCell id="Ua05He2h8O1wiykpPq7E-7" value="Sockets" style="text;html=1;strokeColor=none;fillColor=none;align=center;verticalAlign=middle;whiteSpace=wrap;rounded=0;" parent="1" vertex="1">
          <mxGeometry x="210" y="405" width="60" height="30" as="geometry" />
        </mxCell>
        <mxCell id="Ua05He2h8O1wiykpPq7E-8" value="" style="rounded=1;whiteSpace=wrap;html=1;fillColor=#dae8fc;strokeColor=#6c8ebf;" parent="1" vertex="1">
          <mxGeometry x="570" y="70" width="300" height="430" as="geometry" />
        </mxCell>
        <mxCell id="Ua05He2h8O1wiykpPq7E-9" value="" style="rounded=0;whiteSpace=wrap;html=1;fillColor=#d5e8d4;strokeColor=#82b366;" parent="1" vertex="1">
          <mxGeometry x="600" y="110" width="240" height="60" as="geometry" />
        </mxCell>
        <mxCell id="Ua05He2h8O1wiykpPq7E-10" value="Sserver Functions" style="text;html=1;strokeColor=none;fillColor=none;align=center;verticalAlign=middle;whiteSpace=wrap;rounded=0;" parent="1" vertex="1">
          <mxGeometry x="665" y="127.5" width="110" height="25" as="geometry" />
        </mxCell>
        <mxCell id="Ua05He2h8O1wiykpPq7E-11" value="" style="rounded=0;whiteSpace=wrap;html=1;fillColor=#f8cecc;strokeColor=#b85450;" parent="1" vertex="1">
          <mxGeometry x="600" y="240" width="240" height="70" as="geometry" />
        </mxCell>
        <mxCell id="Ua05He2h8O1wiykpPq7E-12" value="" style="rounded=0;whiteSpace=wrap;html=1;fillColor=#ffe6cc;strokeColor=#d79b00;" parent="1" vertex="1">
          <mxGeometry x="600" y="390" width="240" height="60" as="geometry" />
        </mxCell>
        <mxCell id="Ua05He2h8O1wiykpPq7E-13" value="Server Stub" style="text;html=1;strokeColor=none;fillColor=none;align=center;verticalAlign=middle;whiteSpace=wrap;rounded=0;" parent="1" vertex="1">
          <mxGeometry x="680" y="260" width="80" height="30" as="geometry" />
        </mxCell>
        <mxCell id="Ua05He2h8O1wiykpPq7E-14" value="Sockets" style="text;html=1;strokeColor=none;fillColor=none;align=center;verticalAlign=middle;whiteSpace=wrap;rounded=0;" parent="1" vertex="1">
          <mxGeometry x="690" y="405" width="60" height="30" as="geometry" />
        </mxCell>
        <mxCell id="Ua05He2h8O1wiykpPq7E-15" value="" style="shape=flexArrow;endArrow=classic;html=1;rounded=0;" parent="1" edge="1">
          <mxGeometry width="50" height="50" relative="1" as="geometry">
            <mxPoint x="160" y="170" as="sourcePoint" />
            <mxPoint x="160" y="240" as="targetPoint" />
          </mxGeometry>
        </mxCell>
        <mxCell id="Ua05He2h8O1wiykpPq7E-16" value="" style="shape=flexArrow;endArrow=classic;html=1;rounded=0;entryX=0.171;entryY=-0.033;entryDx=0;entryDy=0;entryPerimeter=0;" parent="1" target="Ua05He2h8O1wiykpPq7E-5" edge="1">
          <mxGeometry width="50" height="50" relative="1" as="geometry">
            <mxPoint x="161" y="310" as="sourcePoint" />
            <mxPoint x="160" y="374" as="targetPoint" />
          </mxGeometry>
        </mxCell>
        <mxCell id="Ua05He2h8O1wiykpPq7E-17" value="" style="shape=flexArrow;endArrow=classic;html=1;rounded=0;" parent="1" edge="1">
          <mxGeometry width="50" height="50" relative="1" as="geometry">
            <mxPoint x="810" y="170" as="sourcePoint" />
            <mxPoint x="810" y="240" as="targetPoint" />
          </mxGeometry>
        </mxCell>
        <mxCell id="Ua05He2h8O1wiykpPq7E-18" value="" style="shape=flexArrow;endArrow=classic;html=1;rounded=0;entryX=0.171;entryY=-0.033;entryDx=0;entryDy=0;entryPerimeter=0;" parent="1" edge="1">
          <mxGeometry width="50" height="50" relative="1" as="geometry">
            <mxPoint x="810" y="310" as="sourcePoint" />
            <mxPoint x="810" y="388" as="targetPoint" />
          </mxGeometry>
        </mxCell>
        <mxCell id="Ua05He2h8O1wiykpPq7E-19" value="" style="shape=flexArrow;endArrow=classic;html=1;rounded=0;entryX=0.808;entryY=1;entryDx=0;entryDy=0;entryPerimeter=0;exitX=0.808;exitY=-0.014;exitDx=0;exitDy=0;exitPerimeter=0;" parent="1" source="Ua05He2h8O1wiykpPq7E-4" target="Ua05He2h8O1wiykpPq7E-2" edge="1">
          <mxGeometry width="50" height="50" relative="1" as="geometry">
            <mxPoint x="260" y="180" as="sourcePoint" />
            <mxPoint x="260" y="250" as="targetPoint" />
          </mxGeometry>
        </mxCell>
        <mxCell id="Ua05He2h8O1wiykpPq7E-20" value="" style="shape=flexArrow;endArrow=classic;html=1;rounded=0;entryX=0.813;entryY=0.986;entryDx=0;entryDy=0;entryPerimeter=0;" parent="1" target="Ua05He2h8O1wiykpPq7E-4" edge="1">
          <mxGeometry width="50" height="50" relative="1" as="geometry">
            <mxPoint x="315" y="390" as="sourcePoint" />
            <mxPoint x="270" y="398" as="targetPoint" />
          </mxGeometry>
        </mxCell>
        <mxCell id="Ua05He2h8O1wiykpPq7E-21" value="" style="shape=flexArrow;endArrow=classic;html=1;rounded=0;entryX=0.813;entryY=0.986;entryDx=0;entryDy=0;entryPerimeter=0;exitX=0.171;exitY=0;exitDx=0;exitDy=0;exitPerimeter=0;" parent="1" source="Ua05He2h8O1wiykpPq7E-12" edge="1">
          <mxGeometry width="50" height="50" relative="1" as="geometry">
            <mxPoint x="640" y="390" as="sourcePoint" />
            <mxPoint x="642" y="309" as="targetPoint" />
          </mxGeometry>
        </mxCell>
        <mxCell id="Ua05He2h8O1wiykpPq7E-22" value="" style="shape=flexArrow;endArrow=classic;html=1;rounded=0;entryX=0.808;entryY=1;entryDx=0;entryDy=0;entryPerimeter=0;exitX=0.808;exitY=-0.014;exitDx=0;exitDy=0;exitPerimeter=0;" parent="1" edge="1">
          <mxGeometry width="50" height="50" relative="1" as="geometry">
            <mxPoint x="640" y="240" as="sourcePoint" />
            <mxPoint x="640" y="171" as="targetPoint" />
          </mxGeometry>
        </mxCell>
        <mxCell id="Ua05He2h8O1wiykpPq7E-23" value="" style="endArrow=classic;html=1;rounded=0;exitX=1;exitY=0.25;exitDx=0;exitDy=0;entryX=0;entryY=0.25;entryDx=0;entryDy=0;" parent="1" source="Ua05He2h8O1wiykpPq7E-5" target="Ua05He2h8O1wiykpPq7E-12" edge="1">
          <mxGeometry width="50" height="50" relative="1" as="geometry">
            <mxPoint x="440" y="370" as="sourcePoint" />
            <mxPoint x="490" y="320" as="targetPoint" />
          </mxGeometry>
        </mxCell>
        <mxCell id="Ua05He2h8O1wiykpPq7E-24" value="" style="endArrow=classic;html=1;rounded=0;entryX=1;entryY=0.75;entryDx=0;entryDy=0;exitX=0;exitY=0.75;exitDx=0;exitDy=0;" parent="1" source="Ua05He2h8O1wiykpPq7E-12" target="Ua05He2h8O1wiykpPq7E-5" edge="1">
          <mxGeometry width="50" height="50" relative="1" as="geometry">
            <mxPoint x="470" y="510" as="sourcePoint" />
            <mxPoint x="520" y="460" as="targetPoint" />
          </mxGeometry>
        </mxCell>
        <mxCell id="Ua05He2h8O1wiykpPq7E-25" value="1" style="text;html=1;strokeColor=none;fillColor=none;align=center;verticalAlign=middle;whiteSpace=wrap;rounded=0;" parent="1" vertex="1">
          <mxGeometry x="110" y="180" width="60" height="30" as="geometry" />
        </mxCell>
        <mxCell id="Ua05He2h8O1wiykpPq7E-26" value="2" style="text;html=1;strokeColor=none;fillColor=none;align=center;verticalAlign=middle;whiteSpace=wrap;rounded=0;" parent="1" vertex="1">
          <mxGeometry x="110" y="330" width="60" height="30" as="geometry" />
        </mxCell>
        <mxCell id="Ua05He2h8O1wiykpPq7E-27" value="3" style="text;html=1;strokeColor=none;fillColor=none;align=center;verticalAlign=middle;whiteSpace=wrap;rounded=0;" parent="1" vertex="1">
          <mxGeometry x="450" y="375" width="60" height="30" as="geometry" />
        </mxCell>
        <mxCell id="Ua05He2h8O1wiykpPq7E-28" value="4" style="text;html=1;strokeColor=none;fillColor=none;align=center;verticalAlign=middle;whiteSpace=wrap;rounded=0;" parent="1" vertex="1">
          <mxGeometry x="580" y="345" width="60" height="30" as="geometry" />
        </mxCell>
        <mxCell id="Ua05He2h8O1wiykpPq7E-29" value="5" style="text;html=1;strokeColor=none;fillColor=none;align=center;verticalAlign=middle;whiteSpace=wrap;rounded=0;" parent="1" vertex="1">
          <mxGeometry x="580" y="190" width="60" height="30" as="geometry" />
        </mxCell>
        <mxCell id="Ua05He2h8O1wiykpPq7E-30" value="6" style="text;html=1;strokeColor=none;fillColor=none;align=center;verticalAlign=middle;whiteSpace=wrap;rounded=0;" parent="1" vertex="1">
          <mxGeometry x="740" y="190" width="60" height="30" as="geometry" />
        </mxCell>
        <mxCell id="Ua05He2h8O1wiykpPq7E-31" value="7" style="text;html=1;strokeColor=none;fillColor=none;align=center;verticalAlign=middle;whiteSpace=wrap;rounded=0;" parent="1" vertex="1">
          <mxGeometry x="740" y="345" width="60" height="30" as="geometry" />
        </mxCell>
        <mxCell id="Ua05He2h8O1wiykpPq7E-32" value="8" style="text;html=1;strokeColor=none;fillColor=none;align=center;verticalAlign=middle;whiteSpace=wrap;rounded=0;" parent="1" vertex="1">
          <mxGeometry x="450" y="450" width="60" height="30" as="geometry" />
        </mxCell>
        <mxCell id="Ua05He2h8O1wiykpPq7E-33" value="9" style="text;html=1;strokeColor=none;fillColor=none;align=center;verticalAlign=middle;whiteSpace=wrap;rounded=0;" parent="1" vertex="1">
          <mxGeometry x="330" y="345" width="60" height="30" as="geometry" />
        </mxCell>
        <mxCell id="Ua05He2h8O1wiykpPq7E-34" value="10" style="text;html=1;strokeColor=none;fillColor=none;align=center;verticalAlign=middle;whiteSpace=wrap;rounded=0;" parent="1" vertex="1">
          <mxGeometry x="330" y="190" width="60" height="30" as="geometry" />
        </mxCell>
        <mxCell id="Ua05He2h8O1wiykpPq7E-35" value="Client" style="text;html=1;strokeColor=none;fillColor=none;align=center;verticalAlign=middle;whiteSpace=wrap;rounded=0;" parent="1" vertex="1">
          <mxGeometry x="200" y="510" width="60" height="30" as="geometry" />
        </mxCell>
        <mxCell id="Ua05He2h8O1wiykpPq7E-36" value="Server" style="text;html=1;strokeColor=none;fillColor=none;align=center;verticalAlign=middle;whiteSpace=wrap;rounded=0;" parent="1" vertex="1">
          <mxGeometry x="690" y="510" width="60" height="30" as="geometry" />
        </mxCell>
        <mxCell id="Ua05He2h8O1wiykpPq7E-37" value="Network" style="text;html=1;strokeColor=none;fillColor=none;align=center;verticalAlign=middle;whiteSpace=wrap;rounded=0;" parent="1" vertex="1">
          <mxGeometry x="450" y="330" width="60" height="30" as="geometry" />
        </mxCell>
        <mxCell id="QPPd8WfT0E97qVIDhJ0_-1" value="" style="rounded=0;whiteSpace=wrap;html=1;fillColor=#dae8fc;strokeColor=#6c8ebf;" vertex="1" parent="1">
          <mxGeometry x="90" y="650" width="120" height="40" as="geometry" />
        </mxCell>
        <mxCell id="QPPd8WfT0E97qVIDhJ0_-2" value="Client" style="text;html=1;strokeColor=none;fillColor=none;align=center;verticalAlign=middle;whiteSpace=wrap;rounded=0;" vertex="1" parent="1">
          <mxGeometry x="120" y="655" width="60" height="30" as="geometry" />
        </mxCell>
        <mxCell id="QPPd8WfT0E97qVIDhJ0_-3" value="" style="rounded=0;whiteSpace=wrap;html=1;fillColor=#dae8fc;strokeColor=#6c8ebf;" vertex="1" parent="1">
          <mxGeometry x="380" y="650" width="120" height="40" as="geometry" />
        </mxCell>
        <mxCell id="QPPd8WfT0E97qVIDhJ0_-4" value="Client Stub" style="text;html=1;strokeColor=none;fillColor=none;align=center;verticalAlign=middle;whiteSpace=wrap;rounded=0;" vertex="1" parent="1">
          <mxGeometry x="405" y="657.5" width="70" height="25" as="geometry" />
        </mxCell>
        <mxCell id="QPPd8WfT0E97qVIDhJ0_-5" value="" style="rounded=0;whiteSpace=wrap;html=1;fillColor=#dae8fc;strokeColor=#6c8ebf;" vertex="1" parent="1">
          <mxGeometry x="690" y="650" width="120" height="40" as="geometry" />
        </mxCell>
        <mxCell id="QPPd8WfT0E97qVIDhJ0_-6" value="Server Stub" style="text;html=1;strokeColor=none;fillColor=none;align=center;verticalAlign=middle;whiteSpace=wrap;rounded=0;" vertex="1" parent="1">
          <mxGeometry x="715" y="657.5" width="70" height="25" as="geometry" />
        </mxCell>
        <mxCell id="QPPd8WfT0E97qVIDhJ0_-7" value="" style="rounded=0;whiteSpace=wrap;html=1;fillColor=#dae8fc;strokeColor=#6c8ebf;" vertex="1" parent="1">
          <mxGeometry x="1010" y="650" width="120" height="40" as="geometry" />
        </mxCell>
        <mxCell id="QPPd8WfT0E97qVIDhJ0_-8" value="Server" style="text;html=1;strokeColor=none;fillColor=none;align=center;verticalAlign=middle;whiteSpace=wrap;rounded=0;" vertex="1" parent="1">
          <mxGeometry x="1040" y="655" width="60" height="30" as="geometry" />
        </mxCell>
        <mxCell id="QPPd8WfT0E97qVIDhJ0_-9" value="" style="html=1;points=[[0,0,0,0,5],[0,1,0,0,-5],[1,0,0,0,5],[1,1,0,0,-5]];perimeter=orthogonalPerimeter;outlineConnect=0;targetShapes=umlLifeline;portConstraint=eastwest;newEdgeStyle={&quot;curved&quot;:0,&quot;rounded&quot;:0};fillColor=#d5e8d4;strokeColor=#82b366;" vertex="1" parent="1">
          <mxGeometry x="142.5" y="730" width="15" height="430" as="geometry" />
        </mxCell>
        <mxCell id="QPPd8WfT0E97qVIDhJ0_-10" value="" style="html=1;points=[[0,0,0,0,5],[0,1,0,0,-5],[1,0,0,0,5],[1,1,0,0,-5]];perimeter=orthogonalPerimeter;outlineConnect=0;targetShapes=umlLifeline;portConstraint=eastwest;newEdgeStyle={&quot;curved&quot;:0,&quot;rounded&quot;:0};fillColor=#d5e8d4;strokeColor=#82b366;" vertex="1" parent="1">
          <mxGeometry x="432.5" y="730" width="15" height="480" as="geometry" />
        </mxCell>
        <mxCell id="QPPd8WfT0E97qVIDhJ0_-11" value="" style="html=1;points=[[0,0,0,0,5],[0,1,0,0,-5],[1,0,0,0,5],[1,1,0,0,-5]];perimeter=orthogonalPerimeter;outlineConnect=0;targetShapes=umlLifeline;portConstraint=eastwest;newEdgeStyle={&quot;curved&quot;:0,&quot;rounded&quot;:0};fillColor=#d5e8d4;strokeColor=#82b366;" vertex="1" parent="1">
          <mxGeometry x="742.5" y="730" width="15" height="430" as="geometry" />
        </mxCell>
        <mxCell id="QPPd8WfT0E97qVIDhJ0_-12" value="" style="html=1;points=[[0,0,0,0,5],[0,1,0,0,-5],[1,0,0,0,5],[1,1,0,0,-5]];perimeter=orthogonalPerimeter;outlineConnect=0;targetShapes=umlLifeline;portConstraint=eastwest;newEdgeStyle={&quot;curved&quot;:0,&quot;rounded&quot;:0};fillColor=#d5e8d4;strokeColor=#82b366;" vertex="1" parent="1">
          <mxGeometry x="1062.5" y="730" width="15" height="430" as="geometry" />
        </mxCell>
        <mxCell id="QPPd8WfT0E97qVIDhJ0_-14" value="" style="endArrow=none;html=1;rounded=0;entryX=0.5;entryY=1;entryDx=0;entryDy=0;" edge="1" parent="1" source="QPPd8WfT0E97qVIDhJ0_-9" target="QPPd8WfT0E97qVIDhJ0_-1">
          <mxGeometry width="50" height="50" relative="1" as="geometry">
            <mxPoint x="50" y="790" as="sourcePoint" />
            <mxPoint x="100" y="740" as="targetPoint" />
          </mxGeometry>
        </mxCell>
        <mxCell id="QPPd8WfT0E97qVIDhJ0_-15" value="" style="endArrow=classic;html=1;rounded=0;" edge="1" parent="1" source="QPPd8WfT0E97qVIDhJ0_-9">
          <mxGeometry width="50" height="50" relative="1" as="geometry">
            <mxPoint x="130" y="1260" as="sourcePoint" />
            <mxPoint x="150" y="1240" as="targetPoint" />
          </mxGeometry>
        </mxCell>
        <mxCell id="QPPd8WfT0E97qVIDhJ0_-17" value="" style="endArrow=none;html=1;rounded=0;entryX=0.5;entryY=1;entryDx=0;entryDy=0;" edge="1" parent="1" source="QPPd8WfT0E97qVIDhJ0_-10" target="QPPd8WfT0E97qVIDhJ0_-3">
          <mxGeometry width="50" height="50" relative="1" as="geometry">
            <mxPoint x="160" y="740" as="sourcePoint" />
            <mxPoint x="160" y="700" as="targetPoint" />
          </mxGeometry>
        </mxCell>
        <mxCell id="QPPd8WfT0E97qVIDhJ0_-18" value="" style="endArrow=none;html=1;rounded=0;entryX=0.5;entryY=1;entryDx=0;entryDy=0;" edge="1" parent="1" source="QPPd8WfT0E97qVIDhJ0_-11" target="QPPd8WfT0E97qVIDhJ0_-5">
          <mxGeometry width="50" height="50" relative="1" as="geometry">
            <mxPoint x="450" y="740" as="sourcePoint" />
            <mxPoint x="600" y="730" as="targetPoint" />
          </mxGeometry>
        </mxCell>
        <mxCell id="QPPd8WfT0E97qVIDhJ0_-19" value="" style="endArrow=none;html=1;rounded=0;entryX=0.5;entryY=1;entryDx=0;entryDy=0;" edge="1" parent="1" source="QPPd8WfT0E97qVIDhJ0_-12" target="QPPd8WfT0E97qVIDhJ0_-7">
          <mxGeometry width="50" height="50" relative="1" as="geometry">
            <mxPoint x="460" y="750" as="sourcePoint" />
            <mxPoint x="460" y="710" as="targetPoint" />
          </mxGeometry>
        </mxCell>
        <mxCell id="QPPd8WfT0E97qVIDhJ0_-20" value="" style="endArrow=classic;html=1;rounded=0;" edge="1" parent="1" source="QPPd8WfT0E97qVIDhJ0_-10">
          <mxGeometry width="50" height="50" relative="1" as="geometry">
            <mxPoint x="160" y="1170" as="sourcePoint" />
            <mxPoint x="440" y="1240" as="targetPoint" />
          </mxGeometry>
        </mxCell>
        <mxCell id="QPPd8WfT0E97qVIDhJ0_-21" value="" style="endArrow=classic;html=1;rounded=0;" edge="1" parent="1" source="QPPd8WfT0E97qVIDhJ0_-11">
          <mxGeometry width="50" height="50" relative="1" as="geometry">
            <mxPoint x="160" y="1170" as="sourcePoint" />
            <mxPoint x="750" y="1240" as="targetPoint" />
          </mxGeometry>
        </mxCell>
        <mxCell id="QPPd8WfT0E97qVIDhJ0_-22" value="" style="endArrow=classic;html=1;rounded=0;" edge="1" parent="1" source="QPPd8WfT0E97qVIDhJ0_-12">
          <mxGeometry width="50" height="50" relative="1" as="geometry">
            <mxPoint x="760" y="1170" as="sourcePoint" />
            <mxPoint x="1070" y="1240" as="targetPoint" />
          </mxGeometry>
        </mxCell>
        <mxCell id="QPPd8WfT0E97qVIDhJ0_-23" value="" style="endArrow=classic;html=1;rounded=0;" edge="1" parent="1">
          <mxGeometry width="50" height="50" relative="1" as="geometry">
            <mxPoint x="160" y="770" as="sourcePoint" />
            <mxPoint x="430" y="770" as="targetPoint" />
          </mxGeometry>
        </mxCell>
        <mxCell id="QPPd8WfT0E97qVIDhJ0_-24" value="" style="endArrow=classic;html=1;rounded=0;" edge="1" parent="1">
          <mxGeometry width="50" height="50" relative="1" as="geometry">
            <mxPoint x="430" y="1140" as="sourcePoint" />
            <mxPoint x="157.5" y="1140" as="targetPoint" />
          </mxGeometry>
        </mxCell>
        <mxCell id="QPPd8WfT0E97qVIDhJ0_-25" value="" style="endArrow=classic;html=1;rounded=0;" edge="1" parent="1">
          <mxGeometry width="50" height="50" relative="1" as="geometry">
            <mxPoint x="450" y="800" as="sourcePoint" />
            <mxPoint x="450" y="840" as="targetPoint" />
            <Array as="points">
              <mxPoint x="510" y="800" />
              <mxPoint x="510" y="840" />
            </Array>
          </mxGeometry>
        </mxCell>
        <mxCell id="QPPd8WfT0E97qVIDhJ0_-26" value="" style="endArrow=classic;html=1;rounded=0;" edge="1" parent="1">
          <mxGeometry width="50" height="50" relative="1" as="geometry">
            <mxPoint x="450" y="860" as="sourcePoint" />
            <mxPoint x="450" y="900" as="targetPoint" />
            <Array as="points">
              <mxPoint x="510" y="860" />
              <mxPoint x="510" y="900" />
            </Array>
          </mxGeometry>
        </mxCell>
        <mxCell id="QPPd8WfT0E97qVIDhJ0_-27" value="" style="endArrow=classic;html=1;rounded=0;" edge="1" parent="1">
          <mxGeometry width="50" height="50" relative="1" as="geometry">
            <mxPoint x="450" y="930" as="sourcePoint" />
            <mxPoint x="740" y="930" as="targetPoint" />
          </mxGeometry>
        </mxCell>
        <mxCell id="QPPd8WfT0E97qVIDhJ0_-28" value="" style="endArrow=classic;html=1;rounded=0;" edge="1" parent="1">
          <mxGeometry width="50" height="50" relative="1" as="geometry">
            <mxPoint x="757.5" y="940" as="sourcePoint" />
            <mxPoint x="757.5" y="980" as="targetPoint" />
            <Array as="points">
              <mxPoint x="817.5" y="940" />
              <mxPoint x="817.5" y="980" />
            </Array>
          </mxGeometry>
        </mxCell>
        <mxCell id="QPPd8WfT0E97qVIDhJ0_-29" value="" style="endArrow=classic;html=1;rounded=0;" edge="1" parent="1">
          <mxGeometry width="50" height="50" relative="1" as="geometry">
            <mxPoint x="757.5" y="1000" as="sourcePoint" />
            <mxPoint x="1060" y="1000" as="targetPoint" />
          </mxGeometry>
        </mxCell>
        <mxCell id="QPPd8WfT0E97qVIDhJ0_-30" value="" style="endArrow=classic;html=1;rounded=0;" edge="1" parent="1">
          <mxGeometry width="50" height="50" relative="1" as="geometry">
            <mxPoint x="1077.5" y="1000" as="sourcePoint" />
            <mxPoint x="1077.5" y="1040" as="targetPoint" />
            <Array as="points">
              <mxPoint x="1137.5" y="1000" />
              <mxPoint x="1137.5" y="1040" />
            </Array>
          </mxGeometry>
        </mxCell>
        <mxCell id="QPPd8WfT0E97qVIDhJ0_-31" value="" style="endArrow=classic;html=1;rounded=0;" edge="1" parent="1">
          <mxGeometry width="50" height="50" relative="1" as="geometry">
            <mxPoint x="1060" y="1040" as="sourcePoint" />
            <mxPoint x="760" y="1040" as="targetPoint" />
          </mxGeometry>
        </mxCell>
        <mxCell id="QPPd8WfT0E97qVIDhJ0_-32" value="" style="endArrow=classic;html=1;rounded=0;" edge="1" parent="1">
          <mxGeometry width="50" height="50" relative="1" as="geometry">
            <mxPoint x="760" y="1050" as="sourcePoint" />
            <mxPoint x="760" y="1090" as="targetPoint" />
            <Array as="points">
              <mxPoint x="820" y="1050" />
              <mxPoint x="820" y="1090" />
            </Array>
          </mxGeometry>
        </mxCell>
        <mxCell id="QPPd8WfT0E97qVIDhJ0_-33" value="" style="endArrow=classic;html=1;rounded=0;" edge="1" parent="1" source="QPPd8WfT0E97qVIDhJ0_-11">
          <mxGeometry width="50" height="50" relative="1" as="geometry">
            <mxPoint x="610" y="1100" as="sourcePoint" />
            <mxPoint x="450" y="1090" as="targetPoint" />
          </mxGeometry>
        </mxCell>
        <mxCell id="QPPd8WfT0E97qVIDhJ0_-34" value="" style="endArrow=classic;html=1;rounded=0;" edge="1" parent="1">
          <mxGeometry width="50" height="50" relative="1" as="geometry">
            <mxPoint x="447.5" y="1100" as="sourcePoint" />
            <mxPoint x="447.5" y="1140" as="targetPoint" />
            <Array as="points">
              <mxPoint x="507.5" y="1100" />
              <mxPoint x="507.5" y="1140" />
            </Array>
          </mxGeometry>
        </mxCell>
        <mxCell id="QPPd8WfT0E97qVIDhJ0_-35" value="客户端调用" style="text;html=1;strokeColor=none;fillColor=none;align=center;verticalAlign=middle;whiteSpace=wrap;rounded=0;" vertex="1" parent="1">
          <mxGeometry x="250" y="740" width="70" height="30" as="geometry" />
        </mxCell>
        <mxCell id="QPPd8WfT0E97qVIDhJ0_-36" value="对方法，信息进行包装" style="text;html=1;strokeColor=none;fillColor=none;align=center;verticalAlign=middle;whiteSpace=wrap;rounded=0;" vertex="1" parent="1">
          <mxGeometry x="510" y="807" width="130" height="20" as="geometry" />
        </mxCell>
        <mxCell id="QPPd8WfT0E97qVIDhJ0_-37" value="序列化包装" style="text;html=1;strokeColor=none;fillColor=none;align=center;verticalAlign=middle;whiteSpace=wrap;rounded=0;" vertex="1" parent="1">
          <mxGeometry x="515" y="870" width="70" height="30" as="geometry" />
        </mxCell>
        <mxCell id="QPPd8WfT0E97qVIDhJ0_-38" value="网络发送" style="text;html=1;strokeColor=none;fillColor=none;align=center;verticalAlign=middle;whiteSpace=wrap;rounded=0;" vertex="1" parent="1">
          <mxGeometry x="550" y="930" width="70" height="30" as="geometry" />
        </mxCell>
        <mxCell id="QPPd8WfT0E97qVIDhJ0_-39" value="网络发送" style="text;html=1;strokeColor=none;fillColor=none;align=center;verticalAlign=middle;whiteSpace=wrap;rounded=0;" vertex="1" parent="1">
          <mxGeometry x="560" y="1060" width="70" height="30" as="geometry" />
        </mxCell>
        <mxCell id="QPPd8WfT0E97qVIDhJ0_-40" value="反序列化" style="text;html=1;strokeColor=none;fillColor=none;align=center;verticalAlign=middle;whiteSpace=wrap;rounded=0;" vertex="1" parent="1">
          <mxGeometry x="510" y="1110" width="70" height="30" as="geometry" />
        </mxCell>
        <mxCell id="QPPd8WfT0E97qVIDhJ0_-41" value="得到请求结果" style="text;html=1;strokeColor=none;fillColor=none;align=center;verticalAlign=middle;whiteSpace=wrap;rounded=0;" vertex="1" parent="1">
          <mxGeometry x="240" y="1110" width="80" height="30" as="geometry" />
        </mxCell>
        <mxCell id="QPPd8WfT0E97qVIDhJ0_-42" value="反序列化" style="text;html=1;strokeColor=none;fillColor=none;align=center;verticalAlign=middle;whiteSpace=wrap;rounded=0;" vertex="1" parent="1">
          <mxGeometry x="820" y="940" width="70" height="30" as="geometry" />
        </mxCell>
        <mxCell id="QPPd8WfT0E97qVIDhJ0_-43" value="序列化包装" style="text;html=1;strokeColor=none;fillColor=none;align=center;verticalAlign=middle;whiteSpace=wrap;rounded=0;" vertex="1" parent="1">
          <mxGeometry x="830" y="1060" width="70" height="30" as="geometry" />
        </mxCell>
        <mxCell id="QPPd8WfT0E97qVIDhJ0_-44" value="调用本地服务" style="text;html=1;strokeColor=none;fillColor=none;align=center;verticalAlign=middle;whiteSpace=wrap;rounded=0;" vertex="1" parent="1">
          <mxGeometry x="880" y="970" width="80" height="30" as="geometry" />
        </mxCell>
        <mxCell id="QPPd8WfT0E97qVIDhJ0_-45" value="本地服务的处理" style="text;html=1;strokeColor=none;fillColor=none;align=center;verticalAlign=middle;whiteSpace=wrap;rounded=0;" vertex="1" parent="1">
          <mxGeometry x="1140" y="1000" width="90" height="30" as="geometry" />
        </mxCell>
        <mxCell id="QPPd8WfT0E97qVIDhJ0_-46" value="返回结果" style="text;html=1;strokeColor=none;fillColor=none;align=center;verticalAlign=middle;whiteSpace=wrap;rounded=0;" vertex="1" parent="1">
          <mxGeometry x="885" y="1010" width="70" height="30" as="geometry" />
        </mxCell>
      </root>
    </mxGraphModel>
  </diagram>
</mxfile>
